<?xml version="1.0" encoding="utf-8"?>
<!-- Generator: Adobe Illustrator 24.0.1, SVG Export Plug-In . SVG Version: 6.00 Build 0)  -->
<svg version="1.1" id="Laag_1" xmlns="http://www.w3.org/2000/svg" xmlns:xlink="http://www.w3.org/1999/xlink" x="0px" y="0px"
	 viewBox="0 0 58 58" style="enable-background:new 0 0 58 58;" xml:space="preserve">
<style type="text/css">
	.st0{fill:#FFFFFF;}
</style>
<path class="st0" d="M53,4h-6V1c0-0.5522-0.4477997-1-1-1c-0.5522995,0-1,0.4478-1,1v3H13V1c0-0.5522-0.4477997-1-1-1
	c-0.5523005,0-1,0.4478-1,1v3H5C2.2430999,4,0,6.2431998,0,9v12v32c0,2.7568016,2.2430999,5,5,5h48c2.7568016,0,5-2.2431984,5-5V21
	V9C58,6.2431998,55.7568016,4,53,4z M2,9c0-1.6543002,1.3457-3,3-3h6v1.1842999C9.8385,7.5984001,9,8.6981001,9,10
	c0,1.6542997,1.3457003,3,3,3s3-1.3457003,3-3c0-1.3018999-0.8385-2.4015999-2-2.8157001V6h32v1.1842999
	C43.838501,7.5984001,43,8.6981001,43,10c0,1.6542997,1.3456993,3,3,3s3-1.3457003,3-3c0-1.3018999-0.838501-2.4015999-2-2.8157001
	V6h6c1.6543007,0,3,1.3456998,3,3v11H2V9z M12,9c0.5513,0,1,0.4487,1,1s-0.4487,1-1,1s-1-0.4487-1-1S11.4487,9,12,9z M46,9
	c0.5513,0,1,0.4487,1,1s-0.4487,1-1,1s-1-0.4487-1-1S45.4487,9,46,9z M56,53c0,1.6543007-1.3456993,3-3,3H5
	c-1.6543,0-3-1.3456993-3-3V22h54V53z"/>
</svg>
