<?xml version="1.0" encoding="utf-8"?>
<!-- Generator: Adobe Illustrator 24.0.1, SVG Export Plug-In . SVG Version: 6.00 Build 0)  -->
<svg version="1.1" id="Laag_1" xmlns="http://www.w3.org/2000/svg" xmlns:xlink="http://www.w3.org/1999/xlink" x="0px" y="0px"
	 viewBox="0 0 14.394886 14.3512564" style="enable-background:new 0 0 14.394886 14.3512564;" xml:space="preserve">
<style type="text/css">
	.st0{fill:#A38CA5;}
</style>
<g>
	<path class="st0" d="M11.1585331,9.3623962l-1.1063137-1.1031199c0,0,0,0.0054131,0.0036077,0.0068569
		C9.9991207,8.2311306,9.7595158,8.3931522,9.453207,8.660903L8.794241,8.0019903
		c0.6340141-0.800005,1.0147114-1.8111076,1.0147114-2.9106188c0-2.5937922-2.1037574-4.6975498-4.6971889-4.6975498
		c-2.5937922,0-4.6975498,2.1037576-4.6975498,4.6975498c0,2.5934315,2.1037574,4.6971893,4.6975498,4.6971893
		c1.0991502,0,2.1106138-0.3803368,2.9106193-1.0114641l0.6589127,0.6592741
		c-0.2677507,0.3027534-0.4297199,0.5427189-0.3947706,0.5990114c-0.0032473,0-0.0032473,0-0.0032473,0l0.006856,0.006856l0,0l0,0
		l1.0959024,1.0926552c0.0671711,0.0631485,0.5182343-0.2785769,1.0078554-0.7682505
		C10.8839254,9.8766079,11.2256508,9.4273491,11.1585331,9.3623962z M5.1117635,9.1650114
		c-2.2520669,0-4.0740004-1.8237381-4.0740004-4.0736399c0-2.2502627,1.8219334-4.0736399,4.0740004-4.0736399
		c2.2480979,0,4.0736394,1.8233769,4.0736394,4.0736399C9.1854029,7.3412733,7.3598614,9.1650114,5.1117635,9.1650114z"/>
	<path class="st0" d="M12.4341393,10.6343937l-1.1063681-1.0995111c0.0671186,0.0671186-0.2782154,0.5181818-0.7646418,1.0078554
		c-0.4896736,0.4896736-0.9407368,0.8317604-1.0078545,0.7664461l1.1063671,1.0995111
		c0.0671177,0.0653133,0.5145721-0.2767725,1.0078545-0.7664461C12.159585,11.1525745,12.5012569,10.7015123,12.4341393,10.6343937z
		"/>
	<path class="st0" d="M13.7101059,11.9099998l-1.1066751-1.0995111c0.0670652,0.0671186-0.2782688,0.5181808-0.7683039,1.0078554
		c-0.4860649,0.4864264-0.9371281,0.8317595-1.0078545,0.7646418l1.1103363,1.0995111
		c0.0668106,0.0671177,0.5142651-0.276412,1.0042467-0.7646418C13.431529,12.4281807,13.7768631,11.9771185,13.7101059,11.9099998z"
		/>
	<path class="st0" d="M13.8789835,12.0860949c0.0635099,0.0671177-0.2782154,0.5145721-0.7682505,1.0046072
		c-0.4896736,0.491478-0.9371281,0.8350077-1.007494,0.7682505c0.4896736,0.4896736,1.2824621,0.4896736,1.7757444,0
		C14.3690186,13.3689175,14.3690186,12.5761299,13.8789835,12.0860949z"/>
	<path class="st0" d="M2.5565825,2.536551c-0.267751,0.267751-0.4120913,0.5513794-0.327599,0.6376226
		c0.0847466,0.0848,0.3701792-0.0635097,0.6379302-0.3294563C3.1311092,2.5787706,3.279058,2.2933381,3.1909573,2.2085381
		C3.1101267,2.1240993,2.8210857,2.2720478,2.5565825,2.536551z"/>
	<path class="st0" d="M7.4973984,7.4769535C7.3104248,7.6638737,7.2083039,7.860898,7.2682052,7.9207993
		s0.2572865-0.044024,0.4442067-0.2287793c0.1829515-0.1869202,0.2854328-0.3843055,0.2255316-0.4424024
		C7.88129,7.187912,7.6806574,7.2918372,7.4973984,7.4769535z"/>
</g>
</svg>
